<svg id="Слой_1" data-name="Слой 1" xmlns="http://www.w3.org/2000/svg" viewBox="0 0 110 110"><defs><style>.cls-1{fill:none;stroke:#888;stroke-width:0.5px;}</style></defs><title>znak</title><path class="cls-1" d="M47.66,80.06s5.67.46,6.48.73a9.86,9.86,0,0,0,3.07.85c1.09,0,7.19,0,8.16-1.37M75,66.5l-.77-.06a2.58,2.58,0,0,0-.27,3.48h.78m-.93.53-1.73-.1-.76-1.13m2.81-3.53-1.68-.09-.91.76m4.6,3.94-1.26-.08a3.65,3.65,0,0,1,.28-4l1.25.09m-1.7,0c-.13-.43-.34-.71-.58-.72-.49,0-1,1-1,2.32s.24,2.41.73,2.44c.21,0,.42-.16.59-.48m1.26-1.68c-.07,1.09.14,2,.48,2s.68-.84.75-1.93-.14-2-.48-2S75.71,67.21,75.64,68.29Zm-4.11-2-.27,3.17M37,62.61l22.94,2s.42,0,.42.42-1.3,11.46-1.3,11.46a.75.75,0,0,1-.66.31c-.49,0-22.9-2.4-22.9-2.4M63.74,34.92v1.34a24.6,24.6,0,0,0-1.76,5,32.8,32.8,0,0,0-.22,8.05,20,20,0,0,0,1.11,4.81M44,31.12S41.62,29.83,41.24,29s-.22-1.07,0-2.22a20.69,20.69,0,0,1,.51-2.16l1-.25v2.87a1.84,1.84,0,0,0,.74,1.42,20.29,20.29,0,0,0,2.9,1.76ZM56.65,57.94v4.23a2.16,2.16,0,0,1-1.75.88c-1.18,0-10.28-.95-10.28-.95a.82.82,0,0,1-.21-.88M56.85,50.46l-.2,7.48-6-.46m-.52-9.12.52,9.12-6.25,3.74.41-14.1m.44-13.26v2.2M55.16,49v.94h-.49v.58s-.28.61-.61.61-3.25-1.26-3.25-1.26l-.16-.16-.39-.11m6.42-.12a26,26,0,0,0-3.63-1c-1-.09-3.17-.09-3.17-.09V48.1m-5.63-1.43c1.41,1.41,4.65,1.45,5.14,1.45a7.13,7.13,0,0,0,3.38-.72A7.05,7.05,0,0,0,55,45a5.12,5.12,0,0,0,.28-3.49c-.46-2.3-3.21-4.51-3.21-4.51A6.13,6.13,0,0,1,54,44.09c-1.75,4.31-5.18,4-5.18,4m0-16.92-3.62,1.21L41,29.61A1.41,1.41,0,0,1,40.41,28c.22-1.27,1.37-5.55,1.37-5.55a1,1,0,0,1,.78-.58c.54,0,19.37.86,19.37.86a2.34,2.34,0,0,1,.83,1m2.72-1.38s.11-.47.44-.23,2.54,10,2.59,10.23a.76.76,0,0,1-.23.56l-1.4.51s-.55.25-.67-.68S65.48,22.36,65.48,22.36ZM57.09,39.7s-.67,4.39-.67,6.14a21.66,21.66,0,0,0,.67,5.52c.38,1,.66,2.09,1.09,2.27s4.69.45,4.69.45l-.1,20.1s.15.81.76,1,.8-.12.8-.12M57.64,34.64l0-.2m11.55-.79L65.93,35l-8.29-.38-.32,4.48s0,.58-.23.58a3.21,3.21,0,0,1-.84-.38l0-1-3.45-1.57h-.38l-.3.3s-2.45-1.43-2.8-1.28-.23-1-.23-1l-.21-2.22-3.57,1.35-8.12-.36m11.69-1.24v.25m-11.36.71,7.53.36,3.83-1.32-.08-1.06a.87.87,0,0,0-.42-.41c-.32-.18-3.39-1.71-3.39-1.71a4.55,4.55,0,0,1-1.16-1,2,2,0,0,1-.44-1.33c0-.44.18-4.1.18-4.1l19,.78s.24.14.24.69.48,4.73.48,4.73a2.59,2.59,0,0,1-.46,1.47,3.17,3.17,0,0,1-1,.78c-.55.3-3.68,1.65-3.68,1.65a.69.69,0,0,0-.5.49,3.33,3.33,0,0,0,0,1.16l0,0,8.17.33,3.24-1.32M51.75,41.37a5,5,0,0,1-4.82,5c-2.48,0-4.34-2.07-4.34-4.81a5,5,0,0,1,4.66-5.13A4.76,4.76,0,0,1,51.75,41.37Zm1.07.15a6,6,0,0,1-5.79,6c-3,0-5.22-2.47-5.22-5.77s2.61-6.17,5.6-6.17A5.71,5.71,0,0,1,52.82,41.52ZM38.21,62.1V52.23a8.07,8.07,0,0,1-1.31-3.79c-.28-2.47-.28-5.88-.28-5.88A33.56,33.56,0,0,1,37.84,37c.69-1.68,1-2.18,1-2.18V33.45m-1.43,39,1.1-7.84,12.26,1.07-.89,8.07ZM36,68.71l1-6.1L38.4,62l22.54,2s.61.45.61.82-1.49,11.92-1.49,11.92a1,1,0,0,1-1,.72c-.79,0-10.36-1.1-10.36-1.1l-5.39-.68m0,.65v.57s.21,1,2,1.6a18,18,0,0,0,4.8,1,43.21,43.21,0,0,0,6.7,0c1-.13,4.92-.17,7.48-2.74m-24.5.64s3.57.62,3.92,1,.31,1.73.31,1.73-.16.81,1.13,1.13a7.19,7.19,0,0,0,1.89.32c.23,0,.5-.84.5-1.3s.64-.46.64-.46,3.58.41,5.1.41a42.31,42.31,0,0,0,6.35-.64c.63-.22,3.05-.68,3.86-1.88m.62,6.51s-1.23,2.92-2.19,3.41m-7.43-2.25V88a2.36,2.36,0,0,0,1.62.86,13.81,13.81,0,0,0,4.53-.11A7.49,7.49,0,0,0,61.77,88c.17-.17.17-.26.17-.26V85.34m-5.44-.46s-2.15,0-2,.65,1.88.94,1.88.94,2.84.11,3.45,0,2.09-.64,2.09-1-.75-.55-1.83-.62m-3.62,0v.83a3.35,3.35,0,0,0,1.91.4A2.58,2.58,0,0,0,60,85.53v-.76M38.62,81.91s.15.88,2.41,1a9.16,9.16,0,0,0,3.55-.34M40,85.26s6,1.69,6.77,1.88,6.79,1.43,7.6,1.57.8.24.8.24l1.65.39,3.92-.54.55-.46m3.17-4.14s-4.76.66-5.65.66a20.3,20.3,0,0,1-2.56-.11c-.71-.1-3.1-.7-3.1-.7l-3.87-.15s-3-.61-3.58-.75A14.11,14.11,0,0,1,43.49,82l-2.84-.73-.83-.1M71.26,69.46,71.12,71a5.91,5.91,0,0,1-1.24,1.33c-.65.44-2.08,1.52-2.62,1.76s-1.42.78-1.56.78-1.37.2-1.37.2l0,1.78a2.29,2.29,0,0,1,.33.56V79a2.83,2.83,0,0,1,.43.37V80s.3.23.3.3,0,3.49,0,3.49-.42.39-.56.39a1.6,1.6,0,0,0-.33,0v1.56a13.81,13.81,0,0,1-2.16,3.71c-1.3,1.46-1.43,1.44-1.43,1.44l-4,.57-3.61-.71-.56-.36s-4.22-.78-4.92-1-4.11-1.1-4.11-1.22-.41,0-.41,0v.1h-.46L40,87.15V85.26l.19-.19M71.53,66.29l.08-4.13,0-9.07,0-6.44L71.25,41s-.3-2-.42-2.6a20.6,20.6,0,0,0-.72-2.55,6.89,6.89,0,0,0-.66-1l-.24-1.23-.14-.15v-.25l-1-4.76s-1.66-6.55-1.87-7.22a2,2,0,0,0-1-1l-23-.86a4.37,4.37,0,0,0-1.9.91c-.51.5-.5,1.38-.61,1.72S38.1,28.76,38,29.18s-.71,3.87-.71,3.87l.17.17v.17h-.11l-.22.11L37,34.72a13.57,13.57,0,0,0-.59,1.3,39.58,39.58,0,0,0-1.1,4.22c-.16.83-.49,4.75-.49,4.75v4.09L35,50.52l.36,1.41v.47l.05,9.18L36,68.71l-.45,5.08s-.1.64.09.82a3.64,3.64,0,0,0,1.09.38l2,.28,4.62.44v.65H41.66a5,5,0,0,0-1.14.24,3,3,0,0,0-.71.85v3.68a3.26,3.26,0,0,0-.67.25,1.14,1.14,0,0,0-.53.53l0,2.24s.8,1.2,3.78,1.2S45.76,84,45.76,84l0-.87"/></svg>